<?xml version="1.0" encoding="UTF-8"?>
<svg xmlns="http://www.w3.org/2000/svg" xmlns:xlink="http://www.w3.org/1999/xlink" width="343.711pt" height="293.522pt" viewBox="0 0 343.711 293.522" version="1.1">
<defs>
<clipPath id="clip1">
  <path d="M 155 196 L 189 196 L 189 293.523438 L 155 293.523438 Z M 155 196 "/>
</clipPath>
<clipPath id="clip2">
  <path d="M 145 185 L 199 185 L 199 293.523438 L 145 293.523438 Z M 145 185 "/>
</clipPath>
<clipPath id="clip3">
  <path d="M 177 232 L 298 232 L 298 293.523438 L 177 293.523438 Z M 177 232 "/>
</clipPath>
<clipPath id="clip4">
  <path d="M 171 232 L 298 232 L 298 293.523438 L 171 293.523438 Z M 171 232 "/>
</clipPath>
<clipPath id="clip5">
  <path d="M 45 235 L 193 235 L 193 293.523438 L 45 293.523438 Z M 45 235 "/>
</clipPath>
<clipPath id="clip6">
  <path d="M 45 235 L 199 235 L 199 293.523438 L 45 293.523438 Z M 45 235 "/>
</clipPath>
</defs>
<g id="surface1">
<path style="fill-rule:nonzero;fill:rgb(74.116516%,6.27594%,87.841797%);fill-opacity:0.21;stroke-width:0.74721;stroke-linecap:butt;stroke-linejoin:miter;stroke:rgb(0%,0%,0%);stroke-opacity:1;stroke-miterlimit:10;" d="M 337.998438 -87.415125 L 314.873438 -122.251062 L 277.451563 -70.133875 L 277.451563 -3.087 L 314.873438 -13.762781 Z M 337.998438 -87.415125 " transform="matrix(1,0,0,-1,-74.1,-2.712)"/>
<path style="fill-rule:nonzero;fill:rgb(96.076965%,65.098572%,13.723755%);fill-opacity:1;stroke-width:0.74721;stroke-linecap:butt;stroke-linejoin:miter;stroke:rgb(0%,0%,0%);stroke-opacity:1;stroke-dasharray:0.83687,2.50064;stroke-miterlimit:10;" d="M 177.088281 -52.004969 L 177.088281 -74.137781 L 164.885156 -63.8995 L 164.885156 -41.770594 Z M 177.088281 -52.004969 " transform="matrix(1,0,0,-1,-74.1,-2.712)"/>
<path style="fill:none;stroke-width:0.74721;stroke-linecap:butt;stroke-linejoin:miter;stroke:rgb(0%,0%,0%);stroke-opacity:1;stroke-miterlimit:10;" d="M 164.885156 -41.770594 L 177.088281 -52.004969 " transform="matrix(1,0,0,-1,-74.1,-2.712)"/>
<path style="fill:none;stroke-width:0.74721;stroke-linecap:butt;stroke-linejoin:miter;stroke:rgb(0%,0%,0%);stroke-opacity:1;stroke-miterlimit:10;" d="M 177.088281 -52.004969 L 177.088281 -74.137781 " transform="matrix(1,0,0,-1,-74.1,-2.712)"/>
<path style="fill:none;stroke-width:0.74721;stroke-linecap:butt;stroke-linejoin:miter;stroke:rgb(0%,0%,0%);stroke-opacity:1;stroke-miterlimit:10;" d="M 230.139062 -38.434656 L 299.385156 -44.36825 " transform="matrix(1,0,0,-1,-74.1,-2.712)"/>
<path style="fill-rule:nonzero;fill:rgb(25.489807%,45.881653%,1.960754%);fill-opacity:1;stroke-width:0.74721;stroke-linecap:butt;stroke-linejoin:miter;stroke:rgb(0%,0%,0%);stroke-opacity:1;stroke-dasharray:0.83687,2.50064;stroke-miterlimit:10;" d="M 299.385156 -44.36825 L 309.748438 -77.434656 L 289.017969 -60.036219 Z M 299.385156 -44.36825 " transform="matrix(1,0,0,-1,-74.1,-2.712)"/>
<path style="fill:none;stroke-width:0.74721;stroke-linecap:butt;stroke-linejoin:miter;stroke:rgb(0%,0%,0%);stroke-opacity:1;stroke-dasharray:0.83687,2.50064;stroke-miterlimit:10;" d="M 239.853906 -49.645594 L 303.119531 -55.579187 " transform="matrix(1,0,0,-1,-74.1,-2.712)"/>
<path style="fill:none;stroke-width:0.74721;stroke-linecap:butt;stroke-linejoin:miter;stroke:rgb(0%,0%,0%);stroke-opacity:1;stroke-dasharray:0.83687,2.50064;stroke-miterlimit:10;" d="M 241.6625 -72.508875 L 309.748438 -77.434656 " transform="matrix(1,0,0,-1,-74.1,-2.712)"/>
<path style="fill:none;stroke-width:0.74721;stroke-linecap:butt;stroke-linejoin:miter;stroke:rgb(0%,0%,0%);stroke-opacity:1;stroke-dasharray:0.83687,2.50064;stroke-miterlimit:10;" d="M 224.6625 -61.942469 L 289.017969 -60.036219 " transform="matrix(1,0,0,-1,-74.1,-2.712)"/>
<path style="fill:none;stroke-width:0.74721;stroke-linecap:butt;stroke-linejoin:miter;stroke:rgb(0%,0%,0%);stroke-opacity:1;stroke-miterlimit:10;" d="M 309.748438 -77.434656 L 299.385156 -44.36825 " transform="matrix(1,0,0,-1,-74.1,-2.712)"/>
<path style="fill:none;stroke-width:0.74721;stroke-linecap:butt;stroke-linejoin:miter;stroke:rgb(0%,0%,0%);stroke-opacity:1;stroke-miterlimit:10;" d="M 130.514062 -55.965906 C 160.404687 -33.547937 197.764062 -38.032312 230.139062 -38.434656 " transform="matrix(1,0,0,-1,-74.1,-2.712)"/>
<path style="fill:none;stroke-width:0.74721;stroke-linecap:butt;stroke-linejoin:miter;stroke:rgb(0%,0%,0%);stroke-opacity:1;stroke-dasharray:0.83687,2.50064;stroke-miterlimit:10;" d="M 130.514062 -55.965906 C 185.060937 -70.911219 210.467187 -64.184656 224.6625 -61.942469 " transform="matrix(1,0,0,-1,-74.1,-2.712)"/>
<path style=" stroke:none;fill-rule:nonzero;fill:rgb(97.254944%,90.586853%,10.978699%);fill-opacity:1;" d="M 157.644531 72.390625 C 156.578125 71.34375 155.515625 69.953125 154.515625 68.21875 C 149.898438 60.226563 148.261719 47.972656 150.855469 40.851563 C 152.386719 36.628906 155.070313 35.15625 157.953125 36.320313 L 159.207031 55.324219 Z M 157.644531 72.390625 "/>
<path style="fill:none;stroke-width:0.74721;stroke-linecap:butt;stroke-linejoin:miter;stroke:rgb(0%,0%,0%);stroke-opacity:1;stroke-dasharray:0.83687,2.50064;stroke-miterlimit:10;" d="M 231.744531 -75.102625 C 230.678125 -74.05575 229.615625 -72.665125 228.615625 -70.93075 C 223.998437 -62.938562 222.361719 -50.684656 224.955469 -43.563562 C 226.486719 -39.340906 229.170312 -37.86825 232.053125 -39.032312 " transform="matrix(1,0,0,-1,-74.1,-2.712)"/>
<path style=" stroke:none;fill-rule:nonzero;fill:rgb(97.254944%,90.586853%,10.978699%);fill-opacity:1;" d="M 157.117188 36.054688 C 159.34375 36.570313 161.757813 38.707031 163.902344 42.425781 C 168.519531 50.414063 170.15625 62.667969 167.5625 69.796875 C 165.648438 75.066406 161.941406 76.050781 158.28125 72.964844 L 159.207031 55.324219 Z M 157.117188 36.054688 "/>
<path style="fill:none;stroke-width:0.74721;stroke-linecap:butt;stroke-linejoin:miter;stroke:rgb(0%,0%,0%);stroke-opacity:1;stroke-miterlimit:10;" d="M 231.217187 -38.766687 C 233.44375 -39.282312 235.857812 -41.419031 238.002344 -45.137781 C 242.619531 -53.126062 244.25625 -65.379969 241.6625 -72.508875 C 239.748437 -77.778406 236.041406 -78.762781 232.38125 -75.676844 " transform="matrix(1,0,0,-1,-74.1,-2.712)"/>
<path style="fill:none;stroke-width:0.74721;stroke-linecap:butt;stroke-linejoin:miter;stroke:rgb(0%,0%,0%);stroke-opacity:1;stroke-dasharray:0.83687,2.50064;stroke-miterlimit:10;" d="M 224.6625 -61.942469 L 289.017969 -60.036219 " transform="matrix(1,0,0,-1,-74.1,-2.712)"/>
<path style="fill:none;stroke-width:0.74721;stroke-linecap:butt;stroke-linejoin:miter;stroke:rgb(0%,0%,0%);stroke-opacity:1;stroke-miterlimit:10;" d="M 130.514062 -55.965906 C 162.642969 -52.231531 207.478906 -49.239344 239.853906 -49.645594 " transform="matrix(1,0,0,-1,-74.1,-2.712)"/>
<path style="fill:none;stroke-width:0.74721;stroke-linecap:butt;stroke-linejoin:miter;stroke:rgb(0%,0%,0%);stroke-opacity:1;stroke-miterlimit:10;" d="M 130.514062 -55.965906 C 175.346094 -77.633875 209.717187 -85.852625 241.6625 -72.508875 " transform="matrix(1,0,0,-1,-74.1,-2.712)"/>
<path style="fill-rule:nonzero;fill:rgb(96.076965%,65.098572%,13.723755%);fill-opacity:1;stroke-width:0.74721;stroke-linecap:butt;stroke-linejoin:miter;stroke:rgb(0%,0%,0%);stroke-opacity:1;stroke-dasharray:0.83687,2.50064;stroke-miterlimit:10;" d="M 177.088281 -142.090906 L 177.088281 -164.219812 L 164.885156 -153.985437 L 164.885156 -131.852625 Z M 177.088281 -142.090906 " transform="matrix(1,0,0,-1,-74.1,-2.712)"/>
<path style="fill:none;stroke-width:0.74721;stroke-linecap:butt;stroke-linejoin:miter;stroke:rgb(0%,0%,0%);stroke-opacity:1;stroke-miterlimit:10;" d="M 164.885156 -131.852625 L 177.088281 -142.090906 " transform="matrix(1,0,0,-1,-74.1,-2.712)"/>
<path style="fill:none;stroke-width:0.74721;stroke-linecap:butt;stroke-linejoin:miter;stroke:rgb(0%,0%,0%);stroke-opacity:1;stroke-miterlimit:10;" d="M 177.088281 -142.090906 L 177.088281 -164.219812 " transform="matrix(1,0,0,-1,-74.1,-2.712)"/>
<path style="fill:none;stroke-width:0.74721;stroke-linecap:butt;stroke-linejoin:miter;stroke:rgb(0%,0%,0%);stroke-opacity:1;stroke-miterlimit:10;" d="M 230.139062 -128.520594 L 322.545313 -150.809656 " transform="matrix(1,0,0,-1,-74.1,-2.712)"/>
<path style="fill:none;stroke-width:0.74721;stroke-linecap:butt;stroke-linejoin:miter;stroke:rgb(0%,0%,0%);stroke-opacity:1;stroke-miterlimit:10;" d="M 239.853906 -139.727625 L 322.545313 -150.809656 " transform="matrix(1,0,0,-1,-74.1,-2.712)"/>
<path style="fill:none;stroke-width:0.74721;stroke-linecap:butt;stroke-linejoin:miter;stroke:rgb(0%,0%,0%);stroke-opacity:1;stroke-miterlimit:10;" d="M 241.6625 -162.590906 L 322.545313 -150.809656 " transform="matrix(1,0,0,-1,-74.1,-2.712)"/>
<path style="fill:none;stroke-width:0.74721;stroke-linecap:butt;stroke-linejoin:miter;stroke:rgb(0%,0%,0%);stroke-opacity:1;stroke-dasharray:0.83687,2.50064;stroke-miterlimit:10;" d="M 224.6625 -152.028406 L 289.017969 -150.129969 " transform="matrix(1,0,0,-1,-74.1,-2.712)"/>
<path style="fill:none;stroke-width:0.74721;stroke-linecap:butt;stroke-linejoin:miter;stroke:rgb(0%,0%,0%);stroke-opacity:1;stroke-miterlimit:10;" d="M 130.514062 -146.047937 C 160.404687 -123.633875 197.764062 -128.114344 230.139062 -128.520594 " transform="matrix(1,0,0,-1,-74.1,-2.712)"/>
<path style="fill:none;stroke-width:0.74721;stroke-linecap:butt;stroke-linejoin:miter;stroke:rgb(0%,0%,0%);stroke-opacity:1;stroke-dasharray:0.83687,2.50064;stroke-miterlimit:10;" d="M 130.514062 -146.047937 C 185.060937 -160.99325 210.467187 -154.266687 224.6625 -152.028406 " transform="matrix(1,0,0,-1,-74.1,-2.712)"/>
<path style=" stroke:none;fill-rule:nonzero;fill:rgb(97.254944%,90.586853%,10.978699%);fill-opacity:1;" d="M 157.644531 162.472656 C 156.578125 161.433594 155.515625 160.039063 154.515625 158.304688 C 149.898438 150.308594 148.261719 138.054688 150.855469 130.933594 C 152.386719 126.710938 155.070313 125.238281 157.953125 126.40625 L 159.207031 145.40625 Z M 157.644531 162.472656 "/>
<path style="fill:none;stroke-width:0.74721;stroke-linecap:butt;stroke-linejoin:miter;stroke:rgb(0%,0%,0%);stroke-opacity:1;stroke-dasharray:0.83687,2.50064;stroke-miterlimit:10;" d="M 231.744531 -165.184656 C 230.678125 -164.145594 229.615625 -162.751062 228.615625 -161.016687 C 223.998437 -153.020594 222.361719 -140.766687 224.955469 -133.645594 C 226.486719 -129.422937 229.170312 -127.950281 232.053125 -129.11825 " transform="matrix(1,0,0,-1,-74.1,-2.712)"/>
<path style=" stroke:none;fill-rule:nonzero;fill:rgb(97.254944%,90.586853%,10.978699%);fill-opacity:1;" d="M 157.117188 126.136719 C 159.34375 126.652344 161.757813 128.789063 163.902344 132.511719 C 168.519531 140.503906 170.15625 152.757813 167.5625 159.878906 C 165.648438 165.148438 161.941406 166.132813 158.28125 163.046875 L 159.207031 145.40625 Z M 157.117188 126.136719 "/>
<path style="fill:none;stroke-width:0.74721;stroke-linecap:butt;stroke-linejoin:miter;stroke:rgb(0%,0%,0%);stroke-opacity:1;stroke-miterlimit:10;" d="M 231.217187 -128.848719 C 233.44375 -129.364344 235.857812 -131.501062 238.002344 -135.223719 C 242.619531 -143.215906 244.25625 -155.469812 241.6625 -162.590906 C 239.748437 -167.860437 236.041406 -168.844812 232.38125 -165.758875 " transform="matrix(1,0,0,-1,-74.1,-2.712)"/>
<path style="fill:none;stroke-width:0.74721;stroke-linecap:butt;stroke-linejoin:miter;stroke:rgb(0%,0%,0%);stroke-opacity:1;stroke-dasharray:0.83687,2.50064;stroke-miterlimit:10;" d="M 224.6625 -152.028406 L 322.545313 -150.809656 " transform="matrix(1,0,0,-1,-74.1,-2.712)"/>
<path style="fill:none;stroke-width:0.74721;stroke-linecap:butt;stroke-linejoin:miter;stroke:rgb(0%,0%,0%);stroke-opacity:1;stroke-miterlimit:10;" d="M 130.514062 -146.047937 C 162.642969 -142.313562 207.478906 -139.325281 239.853906 -139.727625 " transform="matrix(1,0,0,-1,-74.1,-2.712)"/>
<path style="fill:none;stroke-width:0.74721;stroke-linecap:butt;stroke-linejoin:miter;stroke:rgb(0%,0%,0%);stroke-opacity:1;stroke-miterlimit:10;" d="M 130.514062 -146.047937 C 175.346094 -167.719812 209.717187 -175.938562 241.6625 -162.590906 " transform="matrix(1,0,0,-1,-74.1,-2.712)"/>
<g clip-path="url(#clip1)" clip-rule="nonzero">
<path style=" stroke:none;fill-rule:nonzero;fill:rgb(31.373596%,89.019775%,76.075745%);fill-opacity:0.24;" d="M 155.703125 202.023438 C 159.289063 205.027344 162.1875 202.515625 162.1875 196.410156 L 181.632813 212.730469 C 181.632813 218.835938 184.539063 226.210938 188.117188 229.214844 L 188.117188 287.546875 C 184.539063 284.542969 181.632813 287.054688 181.632813 293.152344 L 162.1875 276.839844 C 162.1875 270.734375 159.289063 263.359375 155.703125 260.355469 Z M 155.703125 202.023438 "/>
</g>
<g clip-path="url(#clip2)" clip-rule="nonzero">
<path style="fill:none;stroke-width:0.74721;stroke-linecap:butt;stroke-linejoin:miter;stroke:rgb(0%,0%,0%);stroke-opacity:1;stroke-miterlimit:10;" d="M 229.803125 -204.735437 C 233.389062 -207.739344 236.2875 -205.227625 236.2875 -199.122156 L 255.732812 -215.442469 C 255.732812 -221.547937 258.639063 -228.922937 262.217188 -231.926844 L 262.217188 -290.258875 C 258.639063 -287.254969 255.732812 -289.766687 255.732812 -295.864344 L 236.2875 -279.551844 C 236.2875 -273.446375 233.389062 -266.071375 229.803125 -263.067469 Z M 229.803125 -204.735437 " transform="matrix(1,0,0,-1,-74.1,-2.712)"/>
</g>
<path style="fill:none;stroke-width:0.74721;stroke-linecap:butt;stroke-linejoin:miter;stroke:rgb(0%,0%,0%);stroke-opacity:1;stroke-miterlimit:10;" d="M 255.732812 -215.442469 C 294.154688 -220.540125 350.19375 -237.723719 361.400781 -245.942469 " transform="matrix(1,0,0,-1,-74.1,-2.712)"/>
<path style="fill:none;stroke-width:0.74721;stroke-linecap:butt;stroke-linejoin:miter;stroke:rgb(0%,0%,0%);stroke-opacity:1;stroke-miterlimit:10;" d="M 262.217188 -231.926844 C 301.377344 -236.2745 350.19375 -245.196375 361.400781 -245.942469 " transform="matrix(1,0,0,-1,-74.1,-2.712)"/>
<g clip-path="url(#clip3)" clip-rule="nonzero">
<path style="fill:none;stroke-width:0.74721;stroke-linecap:butt;stroke-linejoin:miter;stroke:rgb(0%,0%,0%);stroke-opacity:1;stroke-miterlimit:10;" d="M 262.217188 -290.258875 C 296.392969 -278.821375 353.182031 -259.391687 361.400781 -245.942469 " transform="matrix(1,0,0,-1,-74.1,-2.712)"/>
</g>
<g clip-path="url(#clip4)" clip-rule="nonzero">
<path style="fill:none;stroke-width:0.74721;stroke-linecap:butt;stroke-linejoin:miter;stroke:rgb(0%,0%,0%);stroke-opacity:1;stroke-miterlimit:10;" d="M 255.732812 -295.864344 C 288.174219 -291.5245 355.424219 -262.383875 361.400781 -245.942469 " transform="matrix(1,0,0,-1,-74.1,-2.712)"/>
</g>
<path style="fill:none;stroke-width:0.74721;stroke-linecap:butt;stroke-linejoin:miter;stroke:rgb(0%,0%,0%);stroke-opacity:1;stroke-miterlimit:10;" d="M 236.2875 -199.122156 C 275.451563 -203.481531 350.939844 -233.989344 361.400781 -245.942469 " transform="matrix(1,0,0,-1,-74.1,-2.712)"/>
<path style="fill:none;stroke-width:0.74721;stroke-linecap:butt;stroke-linejoin:miter;stroke:rgb(0%,0%,0%);stroke-opacity:1;stroke-dasharray:0.83687,2.50064;stroke-miterlimit:10;" d="M 229.803125 -204.735437 C 268.971094 -209.083094 347.205469 -233.989344 361.400781 -245.942469 " transform="matrix(1,0,0,-1,-74.1,-2.712)"/>
<path style="fill:none;stroke-width:0.74721;stroke-linecap:butt;stroke-linejoin:miter;stroke:rgb(0%,0%,0%);stroke-opacity:1;stroke-dasharray:0.83687,2.50064;stroke-miterlimit:10;" d="M 236.2875 -279.551844 C 269.494531 -275.083094 349.447656 -253.415125 361.400781 -245.942469 " transform="matrix(1,0,0,-1,-74.1,-2.712)"/>
<path style="fill:none;stroke-width:0.74721;stroke-linecap:butt;stroke-linejoin:miter;stroke:rgb(0%,0%,0%);stroke-opacity:1;stroke-dasharray:0.83687,2.50064;stroke-miterlimit:10;" d="M 229.803125 -263.067469 C 258.2875 -263.129969 350.19375 -250.426844 361.400781 -245.942469 " transform="matrix(1,0,0,-1,-74.1,-2.712)"/>
<path style="fill:none;stroke-width:0.74721;stroke-linecap:butt;stroke-linejoin:miter;stroke:rgb(0%,0%,0%);stroke-opacity:1;stroke-dasharray:0.83687,2.50064;stroke-miterlimit:10;" d="M 236.178125 -279.551844 C 197.764062 -274.450281 141.721094 -257.262781 130.514062 -249.044031 " transform="matrix(1,0,0,-1,-74.1,-2.712)"/>
<path style="fill:none;stroke-width:0.74721;stroke-linecap:butt;stroke-linejoin:miter;stroke:rgb(0%,0%,0%);stroke-opacity:1;stroke-dasharray:0.83687,2.50064;stroke-miterlimit:10;" d="M 229.689844 -263.067469 C 190.529687 -258.712 141.721094 -249.790125 130.514062 -249.044031 " transform="matrix(1,0,0,-1,-74.1,-2.712)"/>
<path style="fill:none;stroke-width:0.74721;stroke-linecap:butt;stroke-linejoin:miter;stroke:rgb(0%,0%,0%);stroke-opacity:1;stroke-dasharray:0.83687,2.50064;stroke-miterlimit:10;" d="M 229.689844 -204.735437 C 195.521875 -216.169031 138.732812 -235.594812 130.514062 -249.044031 " transform="matrix(1,0,0,-1,-74.1,-2.712)"/>
<path style="fill:none;stroke-width:0.74721;stroke-linecap:butt;stroke-linejoin:miter;stroke:rgb(0%,0%,0%);stroke-opacity:1;stroke-miterlimit:10;" d="M 236.178125 -199.122156 C 203.740625 -203.465906 136.490625 -232.606531 130.514062 -249.044031 " transform="matrix(1,0,0,-1,-74.1,-2.712)"/>
<g clip-path="url(#clip5)" clip-rule="nonzero">
<path style="fill:none;stroke-width:0.74721;stroke-linecap:butt;stroke-linejoin:miter;stroke:rgb(0%,0%,0%);stroke-opacity:1;stroke-miterlimit:10;" d="M 255.619531 -295.864344 C 216.459375 -291.516687 140.975 -261.001062 130.514062 -249.044031 " transform="matrix(1,0,0,-1,-74.1,-2.712)"/>
</g>
<g clip-path="url(#clip6)" clip-rule="nonzero">
<path style="fill:none;stroke-width:0.74721;stroke-linecap:butt;stroke-linejoin:miter;stroke:rgb(0%,0%,0%);stroke-opacity:1;stroke-miterlimit:10;" d="M 262.103906 -290.258875 C 222.935937 -285.911219 144.713281 -261.001062 130.514062 -249.044031 " transform="matrix(1,0,0,-1,-74.1,-2.712)"/>
</g>
<path style="fill:none;stroke-width:0.74721;stroke-linecap:butt;stroke-linejoin:miter;stroke:rgb(0%,0%,0%);stroke-opacity:1;stroke-miterlimit:10;" d="M 255.619531 -215.442469 C 222.420312 -219.903406 142.471094 -241.571375 130.514062 -249.044031 " transform="matrix(1,0,0,-1,-74.1,-2.712)"/>
<path style="fill:none;stroke-width:0.74721;stroke-linecap:butt;stroke-linejoin:miter;stroke:rgb(0%,0%,0%);stroke-opacity:1;stroke-miterlimit:10;" d="M 262.103906 -231.926844 C 233.63125 -231.860437 141.721094 -244.559656 130.514062 -249.044031 " transform="matrix(1,0,0,-1,-74.1,-2.712)"/>
</g>
</svg>
